<?xml version="1.0" encoding="UTF-8"?>
<!DOCTYPE svg PUBLIC "-//W3C//DTD SVG 1.0//EN" "http://www.w3.org/TR/2001/REC-SVG-20010904/DTD/svg10.dtd">
<!-- Creator: CorelDRAW X8 -->
<svg xmlns="http://www.w3.org/2000/svg" xml:space="preserve" width="149.709mm" height="539.074mm" version="1.0" style="shape-rendering:geometricPrecision; text-rendering:geometricPrecision; image-rendering:optimizeQuality; fill-rule:evenodd; clip-rule:evenodd"
viewBox="0 0 21325 76787"
 xmlns:xlink="http://www.w3.org/1999/xlink">
 <defs>
  <style type="text/css">
   <![CDATA[
    .fil0 {fill:#C5C5C4;fill-rule:nonzero}
   ]]>
  </style>
 </defs>
 <g id="Слой_x0020_1">
  <metadata id="CorelCorpID_0Corel-Layer"/>
  <g id="_2322453280912">
   <g>
    <g>
     <path class="fil0" d="M12799 17383c33,933 -206,1900 -414,2802 -344,1492 -783,2962 -1273,4413 -1226,3629 -2791,7184 -4820,10438 -1574,2523 -3568,5142 -6292,6495l0 362c16,-3 32,-8 49,-16 3040,-1464 5189,-4454 6877,-7271 1937,-3232 3427,-6747 4600,-10323 458,-1395 865,-2812 1163,-4250 177,-855 371,-1772 288,-2650 -10,-112 -182,-116 -178,0z"/>
    </g>
   </g>
   <g>
    <g>
     <path class="fil0" d="M1633 40794c2573,5354 1659,11505 2072,17236 220,3054 729,6087 1490,9053 323,1257 712,2495 1070,3742 333,1160 681,2316 1120,3441 348,892 763,1772 1365,2521l272 0c0,-20 -6,-40 -20,-59 -1361,-1898 -1943,-4292 -2575,-6505 -805,-2823 -1555,-5625 -1992,-8533 -455,-3022 -544,-6057 -585,-9107 -37,-2798 -109,-5615 -762,-8349 -294,-1230 -740,-2398 -1310,-3525 -49,-97 -191,-12 -145,85z"/>
    </g>
   </g>
   <g>
    <g>
     <path class="fil0" d="M2254 41951c1939,4251 2947,8889 3962,13427 1058,4732 2039,9509 3714,14071 947,2577 2127,5167 3834,7338l175 0c0,-13 -3,-26 -12,-39 -5476,-7924 -6449,-17825 -8826,-26924 -708,-2711 -1555,-5392 -2737,-7938 -34,-75 -144,-10 -110,65z"/>
    </g>
   </g>
   <g>
    <g>
     <path class="fil0" d="M708 43111c202,3988 367,7977 526,11967 80,1994 152,3990 222,5985 71,2055 63,4129 231,6179 8,102 157,104 160,0 50,-1991 -83,-3997 -151,-5986 -68,-1996 -145,-3991 -229,-5985 -169,-4055 -382,-8108 -608,-12160 -5,-96 -155,-97 -151,0z"/>
    </g>
   </g>
   <g>
    <g>
     <path class="fil0" d="M0 40442c1060,-2334 2195,-4639 3383,-6906 1442,-2752 3066,-5390 4607,-8085 55,-96 -86,-175 -147,-86 -1750,2551 -3239,5309 -4675,8045 -1139,2168 -2187,4373 -3168,6612l0 420z"/>
    </g>
   </g>
   <g>
    <g>
     <path class="fil0" d="M0 22073c2456,-35 4940,-629 7226,-1475 2423,-898 4690,-2208 6681,-3854 3900,-3223 6662,-7989 7225,-13042 34,-305 46,-607 41,-913 -1,-129 -208,-166 -231,-32 -206,1210 -370,2413 -694,3600 -336,1227 -806,2415 -1371,3553 -1163,2342 -2801,4430 -4748,6169 -1997,1783 -4356,3152 -6847,4119 -2356,915 -4787,1356 -7282,1612l0 263z"/>
    </g>
   </g>
   <path class="fil0" d="M21161 71c2,4298 -3426,7811 -6887,10086 -1967,1293 -4170,2205 -6395,2949 -1091,364 -2198,680 -3307,980 -557,151 -1115,296 -1674,438 -279,72 -558,142 -837,212 -167,42 -335,84 -502,126 -56,14 -111,28 -167,42 -151,86 -261,54 -331,-97 108,-32 92,-215 -28,-203 -196,19 -370,212 -248,420 205,350 723,138 1015,65 1342,-334 2683,-674 4013,-1054 2579,-736 5128,-1641 7471,-2962 3884,-2190 8347,-6221 8024,-11002 -6,-94 -147,-96 -147,0z"/>
   <g>
    <g>
     <path class="fil0" d="M20854 136c-1497,3240 -4511,5457 -7777,6710 -4064,1560 -8377,1503 -12655,1443 -143,-2 -139,208 0,219 4305,340 8951,53 12999,-1541 3195,-1258 6227,-3524 7564,-6776 30,-75 -97,-128 -131,-55z"/>
    </g>
   </g>
   <g>
    <g>
     <path class="fil0" d="M285 23251c-8,-4 -16,-8 -24,-12 -18,-10 -41,-5 -51,13 -6,11 -12,21 -18,32 -13,22 -1,49 23,57 208,68 542,-194 726,-274 496,-218 1008,-392 1511,-592 41,-16 26,-80 -18,-67 -367,106 -722,248 -1075,390 -155,63 -308,129 -461,195 -76,33 -609,338 -641,324 38,16 64,-47 28,-66z"/>
    </g>
   </g>
   <g>
    <g>
     <path class="fil0" d="M250 24466c1408,-858 2886,-1495 4407,-2121 43,-18 27,-88 -20,-73 -1554,492 -3043,1274 -4429,2122 -45,28 -4,100 42,72z"/>
    </g>
   </g>
   <g>
    <g>
     <path class="fil0" d="M0 26261c1290,-808 2624,-1533 3928,-2318 40,-24 5,-81 -36,-61 -1344,655 -2631,1465 -3892,2273l0 106z"/>
    </g>
   </g>
   <g>
    <g>
     <path class="fil0" d="M4 27790c628,-533 1317,-961 2009,-1403 38,-24 5,-81 -35,-60 -704,369 -1349,848 -1978,1332l0 134 4 -3z"/>
    </g>
   </g>
   <g>
    <g>
     <path class="fil0" d="M43 29143c448,-426 950,-755 1475,-1078 40,-25 5,-80 -36,-62 -551,245 -1044,617 -1482,1027l0 128c14,1 29,-3 43,-15z"/>
    </g>
   </g>
   <g>
    <g>
     <path class="fil0" d="M113 30371c5,24 10,48 16,72 7,32 50,50 78,32 150,-103 307,-195 464,-289 32,-20 3,-68 -30,-51 -161,85 -322,172 -488,248 26,11 52,21 78,32 -4,-24 -9,-49 -13,-73 -12,-68 -120,-40 -105,29z"/>
    </g>
   </g>
   <g>
    <g>
     <path class="fil0" d="M0 31845c180,-99 345,-214 473,-378 26,-34 -17,-81 -48,-48 -124,128 -263,242 -425,317l0 -115c47,-39 131,15 90,71 -30,40 -60,80 -90,119l0 34z"/>
    </g>
   </g>
   <g>
    <g>
     <path class="fil0" d="M748 39617c991,-218 1989,-441 2948,-777 41,-14 24,-77 -18,-65 -981,276 -1953,552 -2949,776 -43,10 -24,75 19,66z"/>
    </g>
   </g>
   <g>
    <g>
     <path class="fil0" d="M733 38906c318,-169 622,-214 969,-275 46,-9 31,-74 -10,-77 -341,-26 -709,113 -997,287 -41,25 -4,88 38,65z"/>
    </g>
   </g>
   <g>
    <g>
     <path class="fil0" d="M1224 37876c412,-5 867,-92 1202,-345 43,-32 8,-93 -41,-71 -385,173 -732,305 -1161,313 -67,1 -67,104 0,103z"/>
    </g>
   </g>
   <g>
    <g>
     <path class="fil0" d="M1726 36909c273,-81 553,-151 819,-253 46,-18 29,-86 -21,-75 -278,59 -551,154 -823,235 -59,18 -34,110 25,93z"/>
    </g>
   </g>
   <g>
    <g>
     <path class="fil0" d="M2090 36037c317,-110 649,-204 955,-342 42,-19 12,-81 -30,-71 -322,81 -636,213 -950,323 -56,19 -32,110 25,90z"/>
    </g>
   </g>
   <g>
    <g>
     <path class="fil0" d="M2677 35005c318,-64 638,-123 955,-197 40,-9 22,-66 -17,-60 -320,54 -639,123 -958,187 -45,9 -26,79 20,70z"/>
    </g>
   </g>
   <g>
    <g>
     <path class="fil0" d="M2699 68000c-223,532 -484,1061 -665,1609 -14,43 53,72 74,31 261,-519 452,-1080 672,-1617 21,-51 -60,-72 -81,-23z"/>
    </g>
   </g>
   <g>
    <g>
     <path class="fil0" d="M3251 69615c-360,563 -718,1197 -874,1853 -10,42 55,75 74,31 270,-634 508,-1252 879,-1838 31,-50 -48,-95 -79,-46z"/>
    </g>
   </g>
   <g>
    <g>
     <path class="fil0" d="M3810 70425c-291,812 -643,1626 -862,2460 -11,44 56,76 76,32 354,-791 592,-1649 875,-2468 19,-56 -69,-80 -89,-24z"/>
    </g>
   </g>
   <g>
    <g>
     <path class="fil0" d="M4300 71914c-253,514 -466,1079 -507,1655 -4,47 71,56 82,11 128,-563 256,-1093 510,-1617 28,-56 -57,-106 -85,-49z"/>
    </g>
   </g>
   <g>
    <g>
     <path class="fil0" d="M0 43284c17,-13 17,-42 0,-54l0 54z"/>
    </g>
   </g>
   <g>
    <g>
     <path class="fil0" d="M793 10110c862,-352 1737,-656 2612,-973 44,-16 27,-84 -19,-71 -896,251 -1772,598 -2623,973 -39,18 -10,87 30,71z"/>
    </g>
   </g>
   <g>
    <g>
     <path class="fil0" d="M2230 11005c1269,-603 2566,-1173 3808,-1833 42,-23 5,-82 -37,-63 -1290,558 -2545,1216 -3809,1833 -43,21 -5,84 38,63z"/>
    </g>
   </g>
   <g>
    <g>
     <path class="fil0" d="M3762 11333c1293,-591 2595,-1204 3817,-1934 42,-25 5,-87 -38,-65 -1270,652 -2519,1336 -3810,1945 -37,17 -5,71 31,54z"/>
    </g>
   </g>
   <g>
    <g>
     <path class="fil0" d="M6160 10845c924,-397 1840,-836 2692,-1371 39,-25 5,-84 -36,-62 -887,485 -1771,957 -2701,1357 -51,23 -7,98 45,76z"/>
    </g>
   </g>
   <g>
    <g>
     <path class="fil0" d="M8642 10450c509,-149 1001,-391 1388,-759 33,-32 -15,-76 -48,-49 -416,331 -848,582 -1361,733 -48,14 -27,89 21,75z"/>
    </g>
   </g>
   <g>
    <g>
     <path class="fil0" d="M2282 3927c1429,-572 2881,-1107 4287,-1733 40,-18 11,-84 -29,-70 -1442,531 -2853,1159 -4274,1745 -35,15 -20,73 16,58z"/>
    </g>
   </g>
   <g>
    <g>
     <path class="fil0" d="M4331 4638c1533,-734 3101,-1425 4601,-2224 43,-23 5,-83 -37,-64 -1558,680 -3073,1479 -4601,2224 -44,21 -6,85 37,64z"/>
    </g>
   </g>
   <g>
    <g>
     <path class="fil0" d="M6572 4520c1029,-505 2073,-988 3086,-1524 41,-22 5,-81 -36,-62 -1044,474 -2064,1006 -3093,1512 -50,24 -7,98 43,74z"/>
    </g>
   </g>
   <g>
    <g>
     <path class="fil0" d="M8996 3796c-118,53 -157,294 24,256 305,-65 642,-324 927,-463 431,-211 863,-416 1286,-642 43,-23 5,-83 -38,-64 -382,172 -757,360 -1133,546 -215,106 -430,212 -645,318 -107,53 -215,106 -322,159 -19,19 -37,8 -54,-34 52,-23 7,-99 -45,-76z"/>
    </g>
   </g>
   <g>
    <g>
     <path class="fil0" d="M12197 17211c266,-228 535,-452 787,-696 31,-30 -11,-88 -47,-61 -283,214 -549,448 -818,679 -54,46 24,123 78,78z"/>
    </g>
   </g>
   <g>
    <g>
     <path class="fil0" d="M5865 57023c-380,1512 -966,2903 -1579,4330 -21,47 44,89 71,41 737,-1343 1216,-2870 1576,-4352 11,-45 -57,-63 -68,-19z"/>
    </g>
   </g>
   <g>
    <g>
     <path class="fil0" d="M6081 60063c-524,1044 -1104,2075 -1570,3145 -21,50 47,93 75,44 573,-1018 1045,-2102 1562,-3150 21,-44 -44,-83 -67,-39z"/>
    </g>
   </g>
   <g>
    <g>
     <path class="fil0" d="M6546 62031c-493,931 -1036,1851 -1471,2810 -22,48 45,90 73,42 538,-905 980,-1877 1462,-2814 22,-43 -42,-80 -64,-38z"/>
    </g>
   </g>
   <g>
    <g>
     <path class="fil0" d="M6925 63911c-637,855 -1279,1782 -1685,2773 -19,45 53,72 76,32 541,-943 1033,-1883 1680,-2764 31,-42 -40,-82 -71,-41z"/>
    </g>
   </g>
   <g>
    <g>
     <path class="fil0" d="M7121 66072c-325,686 -691,1367 -967,2075 -19,49 60,80 85,35 366,-660 653,-1374 971,-2058 27,-60 -61,-112 -89,-52z"/>
    </g>
   </g>
   <g>
    <g>
     <path class="fil0" d="M8031 68810c-257,738 -612,1427 -904,2149 -20,50 58,78 84,36 404,-656 668,-1433 910,-2160 20,-58 -70,-82 -90,-25z"/>
    </g>
   </g>
   <g>
    <g>
     <path class="fil0" d="M8389 70451c-161,497 -384,1010 -478,1523 -8,47 59,83 81,35 225,-477 342,-1027 501,-1529 21,-67 -82,-94 -104,-29z"/>
    </g>
   </g>
   <g>
    <g>
     <path class="fil0" d="M9048 71737c-151,331 -327,661 -442,1006 -15,47 54,74 78,33 182,-309 312,-656 459,-983 30,-64 -66,-121 -95,-56z"/>
    </g>
   </g>
   <g>
    <g>
     <path class="fil0" d="M2693 40969c-256,383 -484,859 -493,1328 -1,43 64,52 75,10 114,-467 223,-885 491,-1295 30,-46 -43,-88 -73,-43z"/>
    </g>
   </g>
   <g>
    <g>
     <path class="fil0" d="M0 42765c816,-87 1557,-419 2190,-943 562,-467 1157,-1324 845,-2081 -24,-59 -131,-60 -124,17 168,1637 -1478,2638 -2911,2894l0 113z"/>
    </g>
   </g>
   <g>
    <g>
     <path class="fil0" d="M2110 40482c196,289 224,604 169,941 -8,45 57,82 79,33 153,-343 70,-736 -146,-1033 -44,-61 -146,-5 -102,59z"/>
    </g>
   </g>
   <g>
    <g>
     <path class="fil0" d="M853 41464c118,148 217,292 228,486 10,167 -76,321 -110,480 -12,57 57,81 90,38 271,-357 181,-791 -129,-1083 -54,-50 -123,24 -79,79z"/>
    </g>
   </g>
   <g>
    <g>
     <path class="fil0" d="M0 41370c236,50 485,27 698,-98 36,-22 12,-83 -30,-69 -226,78 -447,114 -668,75l0 92z"/>
    </g>
   </g>
   <g>
    <g>
     <path class="fil0" d="M1537 42991c-119,571 -330,1098 -509,1650 -14,45 55,75 77,33 268,-511 401,-1099 509,-1662 10,-50 -66,-72 -77,-21z"/>
    </g>
   </g>
   <g>
    <g>
     <path class="fil0" d="M1707 44739c-119,525 -356,966 -575,1451 -17,37 32,85 61,47 320,-410 490,-974 599,-1475 12,-55 -72,-79 -85,-23z"/>
    </g>
   </g>
   <g>
    <g>
     <path class="fil0" d="M2135 45623c-376,629 -810,1255 -1116,1921 -24,51 42,89 75,44 430,-594 763,-1279 1127,-1915 32,-56 -53,-105 -86,-50z"/>
    </g>
   </g>
   <g>
    <g>
     <path class="fil0" d="M2355 46705c-422,789 -897,1569 -1260,2387 -22,50 45,91 75,43 473,-758 851,-1590 1267,-2381 29,-55 -53,-103 -82,-49z"/>
    </g>
   </g>
   <g>
    <g>
     <path class="fil0" d="M2215 51559c-136,552 -392,1016 -624,1527 -19,42 35,95 69,53 341,-431 529,-1025 655,-1552 15,-65 -84,-93 -100,-28z"/>
    </g>
   </g>
   <g>
    <g>
     <path class="fil0" d="M2192 53210c-168,480 -374,962 -491,1458 -10,41 52,72 72,30 217,-465 356,-975 523,-1460 23,-66 -81,-94 -104,-28z"/>
    </g>
   </g>
   <g>
    <g>
     <path class="fil0" d="M2507 54479c-91,481 -255,929 -455,1374 -19,43 39,79 63,37 246,-429 396,-900 487,-1385 12,-62 -83,-89 -95,-26z"/>
    </g>
   </g>
   <path class="fil0" d="M20255 3960c154,549 120,660 347,1183 21,49 89,12 81,-34 -103,-556 -162,-637 -338,-1173 -19,-57 -106,-34 -90,24z"/>
   <path class="fil0" d="M20020 4494c129,546 89,793 275,1322 20,57 97,34 88,-24 -82,-555 -131,-780 -272,-1323 -16,-59 -105,-34 -91,25z"/>
   <g>
    <g>
     <path class="fil0" d="M19704 5022c10,508 37,1090 228,1567 18,45 100,45 93,-13 -65,-522 -193,-1023 -213,-1554 -2,-69 -109,-69 -108,0z"/>
    </g>
   </g>
   <g>
    <g>
     <path class="fil0" d="M19298 5726c165,607 284,1258 522,1840 22,54 96,34 86,-24 -101,-620 -340,-1238 -516,-1841 -17,-59 -108,-34 -92,25z"/>
    </g>
   </g>
   <g>
    <g>
     <path class="fil0" d="M19119 6776c95,709 135,1459 310,2154 13,50 93,40 91,-13 -21,-717 -187,-1446 -290,-2156 -9,-63 -119,-48 -111,15z"/>
    </g>
   </g>
   <g>
    <g>
     <path class="fil0" d="M18912 7558c74,583 115,1185 243,1759 12,52 96,40 93,-13 -32,-586 -156,-1178 -242,-1759 -8,-53 -101,-41 -94,13z"/>
    </g>
   </g>
   <g>
    <g>
     <path class="fil0" d="M18423 8216c-114,571 -151,1223 56,1779 22,58 99,34 91,-25 -82,-597 -152,-1125 -39,-1725 14,-70 -94,-101 -108,-29z"/>
    </g>
   </g>
   <g>
    <g>
     <path class="fil0" d="M17676 9585c-49,354 -58,779 106,1107 24,49 88,12 81,-34 -53,-359 -129,-676 -79,-1043 10,-70 -98,-101 -108,-30z"/>
    </g>
   </g>
   <g>
    <g>
     <path class="fil0" d="M0 20512c309,-345 642,-680 918,-1052 27,-37 -31,-78 -62,-48 -308,302 -578,652 -856,984l0 116z"/>
    </g>
   </g>
   <g>
    <g>
     <path class="fil0" d="M351 21435c657,-737 1336,-1479 1930,-2267 28,-37 -32,-81 -62,-49 -679,712 -1300,1501 -1918,2266 -29,34 19,84 50,50z"/>
    </g>
   </g>
   <g>
    <g>
     <path class="fil0" d="M1228 21440c685,-670 1374,-1393 1935,-2171 26,-37 -32,-80 -62,-48 -666,695 -1289,1443 -1932,2159 -36,40 20,97 59,60z"/>
    </g>
   </g>
   <g>
    <g>
     <path class="fil0" d="M2193 21430c850,-915 1776,-1723 2691,-2568 32,-30 -11,-88 -48,-62 -993,732 -1881,1653 -2698,2574 -34,38 21,94 55,56z"/>
    </g>
   </g>
   <g>
    <g>
     <path class="fil0" d="M3488 20876c-8,-7 -15,-14 -22,-21 -14,-14 -41,-20 -57,-7 -54,40 -65,44 -57,112 3,28 19,46 48,48 195,18 329,-175 466,-293 323,-275 650,-545 982,-809 708,-564 1452,-1074 2180,-1610 39,-29 4,-93 -39,-67 -620,375 -1206,811 -1782,1251 -157,119 -1767,1481 -1786,1463 44,41 110,-24 67,-67z"/>
    </g>
   </g>
   <g>
    <g>
     <path class="fil0" d="M5294 20389c-13,11 -25,21 -37,32 -18,15 -17,42 -8,62 9,17 17,35 26,53 7,15 27,26 44,25 131,-8 193,-84 300,-167 288,-224 575,-450 861,-678 617,-492 1250,-979 1824,-1520 33,-31 -12,-91 -49,-63 -977,738 -1966,1524 -2889,2328 49,-43 -23,-115 -72,-72z"/>
    </g>
   </g>
   <g>
    <g>
     <path class="fil0" d="M7064 20117c728,-381 1410,-897 1905,-1558 26,-34 -30,-75 -58,-45 -557,616 -1148,1144 -1884,1539 -43,23 -5,86 37,64z"/>
    </g>
   </g>
   <g>
    <g>
     <path class="fil0" d="M3603 10864c877,-483 1772,-944 2629,-1461 42,-26 5,-88 -38,-65 -890,458 -1752,978 -2623,1471 -36,20 -4,75 32,55z"/>
    </g>
   </g>
   <g>
    <g>
     <path class="fil0" d="M1846 10663c875,-444 1749,-956 2571,-1492 44,-29 5,-96 -42,-71 -871,451 -1747,960 -2565,1502 -38,25 -5,82 36,61z"/>
    </g>
   </g>
   <g>
    <g>
     <path class="fil0" d="M10954 3905c932,-787 1890,-1552 2788,-2378 34,-32 -15,-78 -50,-50 -958,755 -1866,1580 -2792,2375 -37,32 17,84 54,53z"/>
    </g>
   </g>
   <g>
    <g>
     <path class="fil0" d="M12374 3662c1129,-904 2241,-1839 3273,-2854 31,-30 -15,-74 -47,-46 -1091,952 -2166,1920 -3280,2846 -38,32 16,84 54,54z"/>
    </g>
   </g>
   <g>
    <g>
     <path class="fil0" d="M13572 3155c-38,122 -79,242 -123,362 -15,43 42,68 72,41 1221,-1094 2493,-2212 3571,-3450 32,-38 -18,-89 -55,-55 -640,570 -1228,1202 -1844,1798 -309,298 -620,594 -931,889 -133,127 -267,253 -401,379 -129,122 -345,459 -217,56 14,-46 -57,-65 -72,-20z"/>
    </g>
   </g>
   <g>
    <g>
     <path class="fil0" d="M15428 2652c599,-458 1207,-984 1641,-1607 27,-39 -33,-83 -65,-50 -526,560 -1019,1115 -1626,1592 -37,29 13,94 50,65z"/>
    </g>
   </g>
   <g>
    <g>
     <path class="fil0" d="M10277 19198c-469,596 -975,1212 -1365,1863 -27,45 37,97 73,56 503,-568 939,-1235 1367,-1862 30,-44 -41,-100 -75,-57z"/>
    </g>
   </g>
   <g>
    <g>
     <path class="fil0" d="M11871 18546c-1022,1142 -2126,2252 -3068,3461 -33,43 20,100 60,61 1090,-1077 2062,-2305 3077,-3454 41,-46 -27,-115 -69,-68z"/>
    </g>
   </g>
   <g>
    <g>
     <path class="fil0" d="M11873 19630c-496,675 -1018,1330 -1562,1967 -548,642 -1160,1222 -1715,1856 -37,43 20,101 63,63 1259,-1089 2326,-2494 3300,-3836 38,-52 -48,-101 -86,-50z"/>
    </g>
   </g>
   <g>
    <g>
     <path class="fil0" d="M12034 20952c-1039,1202 -2101,2398 -3078,3651 -42,52 29,128 75,75 1046,-1199 2040,-2446 3072,-3657 41,-47 -28,-117 -69,-69z"/>
    </g>
   </g>
   <g>
    <g>
     <path class="fil0" d="M11926 22326c-586,780 -1224,1517 -1910,2211 -503,510 -1183,988 -1421,1693 -16,49 58,79 83,35 418,-756 1068,-1281 1661,-1894 604,-624 1158,-1296 1676,-1993 40,-54 -50,-105 -89,-52z"/>
    </g>
   </g>
   <g>
    <g>
     <path class="fil0" d="M10861 25135c-808,1013 -1636,2013 -2413,3050 -26,34 31,78 59,46 835,-985 1622,-2012 2427,-3023 41,-51 -32,-125 -73,-73z"/>
    </g>
   </g>
   <g>
    <g>
     <path class="fil0" d="M4300 62485c414,-908 873,-1760 1405,-2605 31,-50 -42,-89 -76,-45 -596,783 -1081,1690 -1399,2621 -14,41 52,69 70,29z"/>
    </g>
   </g>
   <g>
    <g>
     <path class="fil0" d="M4214 59861c397,-840 753,-1737 968,-2641 13,-55 -64,-75 -84,-23 -328,874 -622,1761 -953,2634 -15,41 51,68 69,30z"/>
    </g>
   </g>
   <g>
    <g>
     <path class="fil0" d="M4076 58575c228,-795 541,-1535 865,-2295 21,-49 -46,-93 -74,-43 -403,713 -674,1524 -871,2316 -13,52 65,73 80,22z"/>
    </g>
   </g>
   <g>
    <g>
     <path class="fil0" d="M3910 56343c137,-487 360,-911 587,-1358 25,-48 -40,-84 -71,-41 -291,400 -466,903 -587,1379 -11,46 58,65 71,20z"/>
    </g>
   </g>
   <g>
    <g>
     <path class="fil0" d="M5002 63565c177,-302 363,-601 527,-910 21,-38 -35,-71 -58,-34 -189,295 -359,603 -536,905 -25,43 42,82 67,39z"/>
    </g>
   </g>
   <g>
    <g>
     <path class="fil0" d="M5175 65794c213,-411 442,-835 603,-1269 18,-49 -57,-78 -82,-35 -234,395 -417,838 -600,1259 -22,52 51,98 79,45z"/>
    </g>
   </g>
   <g>
    <g>
     <path class="fil0" d="M5454 68027c481,-883 1000,-1738 1500,-2609 31,-55 -47,-97 -82,-48 -587,800 -1078,1713 -1484,2618 -20,44 42,83 66,39z"/>
    </g>
   </g>
   <g>
    <g>
     <path class="fil0" d="M5993 69512c323,-725 736,-1380 1135,-2063 22,-37 -33,-82 -61,-47 -483,617 -840,1350 -1148,2067 -22,50 51,94 74,43z"/>
    </g>
   </g>
   <g>
    <g>
     <path class="fil0" d="M6587 70202c292,-483 604,-968 851,-1476 23,-48 -43,-88 -73,-42 -315,468 -578,982 -848,1477 -25,46 43,86 70,41z"/>
    </g>
   </g>
   <g>
    <g>
     <path class="fil0" d="M2191 70485c224,-455 464,-906 667,-1371 18,-41 -39,-77 -61,-36 -244,445 -452,911 -675,1366 -22,47 46,87 69,41z"/>
    </g>
   </g>
   <g>
    <g>
     <path class="fil0" d="M2651 72218c131,-646 360,-1236 613,-1841 18,-44 -52,-71 -75,-32 -331,562 -511,1213 -602,1855 -6,41 55,61 64,18z"/>
    </g>
   </g>
   <g>
    <g>
     <path class="fil0" d="M1637 68650c403,-695 808,-1425 1123,-2165 21,-50 -45,-93 -75,-44 -421,685 -780,1440 -1113,2171 -20,44 40,81 65,38z"/>
    </g>
   </g>
   <g>
    <g>
     <path class="fil0" d="M1790 67062c138,-665 397,-1230 688,-1837 29,-60 -48,-102 -87,-51 -396,520 -616,1219 -708,1858 -10,69 93,101 107,30z"/>
    </g>
   </g>
   <g>
    <g>
     <path class="fil0" d="M1551 65687c249,-507 540,-1014 736,-1545 17,-47 -55,-74 -80,-33 -288,481 -498,1023 -735,1532 -25,53 53,100 79,46z"/>
    </g>
   </g>
   <g>
    <g>
     <path class="fil0" d="M1768 64237c228,-436 471,-886 641,-1348 17,-46 -53,-72 -77,-33 -251,419 -447,888 -642,1335 -23,53 50,99 78,46z"/>
    </g>
   </g>
   <g>
    <g>
     <path class="fil0" d="M1660 62961c312,-471 640,-943 910,-1439 26,-47 -39,-83 -70,-41 -335,454 -626,951 -922,1432 -32,52 49,99 82,48z"/>
    </g>
   </g>
   <g>
    <g>
     <path class="fil0" d="M2760 34433c415,-149 852,-275 1249,-468 46,-22 13,-92 -34,-80 -423,111 -833,298 -1241,454 -59,22 -34,116 26,94z"/>
    </g>
   </g>
   <g>
    <g>
     <path class="fil0" d="M3242 33701c192,-95 405,-177 580,-300 35,-25 15,-87 -31,-72 -207,67 -404,189 -599,287 -57,28 -7,113 50,85z"/>
    </g>
   </g>
   <g>
    <g>
     <path class="fil0" d="M3620 33094c230,-117 481,-219 694,-365 37,-25 15,-93 -32,-76 -247,90 -479,235 -712,356 -56,29 -6,114 50,85z"/>
    </g>
   </g>
   <g>
    <g>
     <path class="fil0" d="M32 25405c701,-651 1459,-1182 2243,-1725 47,-33 6,-106 -46,-78 -820,432 -1574,1060 -2229,1713l0 102c11,1 22,-2 32,-12z"/>
    </g>
   </g>
   <g>
    <g>
     <path class="fil0" d="M1574 2349c751,-259 1509,-610 2146,-1090 44,-34 6,-107 -45,-77 -698,401 -1375,783 -2123,1087 -48,20 -29,97 22,80z"/>
    </g>
   </g>
   <g>
    <g>
     <path class="fil0" d="M2652 2920c645,-359 1312,-698 1932,-1099 46,-30 6,-97 -43,-73 -661,328 -1294,727 -1932,1097 -49,28 -5,102 43,75z"/>
    </g>
   </g>
   <g>
    <g>
     <path class="fil0" d="M3996 3960c973,-611 1983,-1075 3037,-1528 41,-17 11,-84 -31,-71 -1077,339 -2111,903 -3046,1532 -41,27 -3,94 40,67z"/>
    </g>
   </g>
   <g>
    <g>
     <path class="fil0" d="M14660 10061c-360,748 -750,1481 -1172,2197 -423,717 -923,1379 -1361,2085 -26,41 35,90 68,52 1062,-1246 1868,-2807 2545,-4288 24,-53 -54,-101 -80,-46z"/>
    </g>
   </g>
   <g>
    <g>
     <path class="fil0" d="M13921 10511c-505,760 -1033,1501 -1607,2211 -542,671 -1160,1268 -1721,1919 -42,49 21,111 69,70 1324,-1123 2444,-2677 3344,-4150 34,-55 -50,-103 -85,-50z"/>
    </g>
   </g>
   <g>
    <g>
     <path class="fil0" d="M13018 11045c-979,1293 -2103,2411 -3222,3578 -41,43 20,99 64,64 1246,-1007 2305,-2303 3252,-3588 41,-56 -52,-109 -94,-54z"/>
    </g>
   </g>
   <g>
    <g>
     <path class="fil0" d="M10874 12682c-871,997 -1861,1830 -2809,2746 -36,36 13,102 56,72 1060,-742 1985,-1769 2829,-2742 45,-52 -30,-128 -76,-76z"/>
    </g>
   </g>
   <g>
    <g>
     <path class="fil0" d="M9398 13349c-777,718 -1628,1364 -2391,2095 -35,34 12,97 53,69 869,-595 1650,-1368 2413,-2089 50,-47 -25,-121 -75,-75z"/>
    </g>
   </g>
   <g>
    <g>
     <path class="fil0" d="M7164 14230c-647,581 -1336,1137 -1942,1759 -45,45 20,105 67,67 681,-540 1305,-1168 1949,-1752 49,-45 -24,-118 -74,-74z"/>
    </g>
   </g>
  </g>
 </g>
</svg>
